mono_size_11_07_design_1.ufo
<glyph name="char34.uni0022" format="2">
  <advance width="1024" />
  <unicode hex="0022" />
  <outline>
    <contour>
      <point x="256.0" y="1024.0" type="line" />
      <point x="256.0" y="1408.0" type="line" />
      <point x="384.0" y="1408.0" type="line" />
      <point x="384.0" y="1024.0" type="line" />
    </contour>
    <contour>
      <point x="512.0" y="1024.0" type="line" />
      <point x="512.0" y="1408.0" type="line" />
      <point x="640.0" y="1408.0" type="line" />
      <point x="640.0" y="1024.0" type="line" />
    </contour>
  </outline>
</glyph>
<glyph name="char36.uni0024" format="2">
  <advance width="1024" />
  <unicode hex="0024" />
  <outline>
    <contour>
      <point x="128.0" y="421.0" type="line" />
      <point x="219.0" y="512.0" type="line" />
      <point x="347.0" y="384.0" type="line" />
      <point x="384.0" y="384.0" type="line" />
      <point x="384.0" y="640.0" type="line" />
      <point x="293.0" y="640.0" type="line" />
      <point x="128.0" y="805.0" type="line" />
      <point x="128.0" y="987.0" type="line" />
      <point x="293.0" y="1152.0" type="line" />
      <point x="384.0" y="1152.0" type="line" />
      <point x="384.0" y="1408.0" type="line" />
      <point x="512.0" y="1408.0" type="line" />
      <point x="512.0" y="1152.0" type="line" />
      <point x="603.0" y="1152.0" type="line" />
      <point x="768.0" y="987.0" type="line" />
      <point x="677.0" y="896.0" type="line" />
      <point x="549.0" y="1024.0" type="line" />
      <point x="512.0" y="1024.0" type="line" />
      <point x="512.0" y="768.0" type="line" />
      <point x="603.0" y="768.0" type="line" />
      <point x="768.0" y="603.0" type="line" />
      <point x="768.0" y="421.0" type="line" />
      <point x="603.0" y="256.0" type="line" />
      <point x="512.0" y="256.0" type="line" />
      <point x="512.0" y="0.0" type="line" />
      <point x="384.0" y="0.0" type="line" />
      <point x="384.0" y="256.0" type="line" />
      <point x="293.0" y="256.0" type="line" />
    </contour>
    <contour>
      <point x="256.0" y="859.0" type="line" />
      <point x="347.0" y="768.0" type="line" />
      <point x="384.0" y="768.0" type="line" />
      <point x="384.0" y="1024.0" type="line" />
      <point x="347.0" y="1024.0" type="line" />
      <point x="256.0" y="933.0" type="line" />
    </contour>
    <contour>
      <point x="512.0" y="384.0" type="line" />
      <point x="549.0" y="384.0" type="line" />
      <point x="640.0" y="475.0" type="line" />
      <point x="640.0" y="549.0" type="line" />
      <point x="549.0" y="640.0" type="line" />
      <point x="512.0" y="640.0" type="line" />
    </contour>
  </outline>
</glyph>
<glyph name="char37.uni0025" format="2">
  <advance width="1024" />
  <unicode hex="0025" />
  <outline>
    <contour>
      <point x="0.0" y="347.0" type="line" />
      <point x="805.0" y="1152.0" type="line" />
      <point x="896.0" y="1061.0" type="line" />
      <point x="91.0" y="256.0" type="line" />
    </contour>
    <contour>
      <point x="0.0" y="933.0" type="line" />
      <point x="0.0" y="987.0" type="line" />
      <point x="165.0" y="1152.0" type="line" />
      <point x="219.0" y="1152.0" type="line" />
      <point x="384.0" y="987.0" type="line" />
      <point x="384.0" y="933.0" type="line" />
      <point x="219.0" y="768.0" type="line" />
      <point x="165.0" y="768.0" type="line" />
    </contour>
    <contour>
      <point x="128.0" y="933.0" type="line" />
      <point x="165.0" y="896.0" type="line" />
      <point x="219.0" y="896.0" type="line" />
      <point x="256.0" y="933.0" type="line" />
      <point x="256.0" y="987.0" type="line" />
      <point x="219.0" y="1024.0" type="line" />
      <point x="165.0" y="1024.0" type="line" />
      <point x="128.0" y="987.0" type="line" />
    </contour>
    <contour>
      <point x="512.0" y="421.0" type="line" />
      <point x="512.0" y="475.0" type="line" />
      <point x="677.0" y="640.0" type="line" />
      <point x="731.0" y="640.0" type="line" />
      <point x="896.0" y="475.0" type="line" />
      <point x="896.0" y="421.0" type="line" />
      <point x="731.0" y="256.0" type="line" />
      <point x="677.0" y="256.0" type="line" />
    </contour>
    <contour>
      <point x="640.0" y="421.0" type="line" />
      <point x="677.0" y="384.0" type="line" />
      <point x="731.0" y="384.0" type="line" />
      <point x="768.0" y="421.0" type="line" />
      <point x="768.0" y="475.0" type="line" />
      <point x="731.0" y="512.0" type="line" />
      <point x="677.0" y="512.0" type="line" />
      <point x="640.0" y="475.0" type="line" />
    </contour>
  </outline>
</glyph>
<glyph name="38" format="2">
  <advance width="1024" />
  <unicode hex="0026" />
  <outline>
    <contour>
      <point x="0.0" y="165.0" type="line" />
      <point x="0.0" y="475.0" type="line" />
      <point x="229.0" y="704.0" type="line" />
      <point x="0.0" y="933.0" type="line" />
      <point x="0.0" y="1115.0" type="line" />
      <point x="293.0" y="1408.0" type="line" />
      <point x="347.0" y="1408.0" type="line" />
      <point x="640.0" y="1115.0" type="line" />
      <point x="640.0" y="933.0" type="line" />
      <point x="411.0" y="704.0" type="line" />
      <point x="704.0" y="411.0" type="line" />
      <point x="805.0" y="512.0" type="line" />
      <point x="896.0" y="421.0" type="line" />
      <point x="795.0" y="320.0" type="line" />
      <point x="896.0" y="219.0" type="line" />
      <point x="805.0" y="128.0" type="line" />
      <point x="704.0" y="229.0" type="line" />
      <point x="475.0" y="0.0" type="line" />
      <point x="165.0" y="0.0" type="line" />
    </contour>
    <contour>
      <point x="128.0" y="219.0" type="line" />
      <point x="219.0" y="128.0" type="line" />
      <point x="421.0" y="128.0" type="line" />
      <point x="613.0" y="320.0" type="line" />
      <point x="320.0" y="613.0" type="line" />
      <point x="128.0" y="421.0" type="line" />
    </contour>
    <contour>
      <point x="128.0" y="987.0" type="line" />
      <point x="320.0" y="795.0" type="line" />
      <point x="512.0" y="987.0" type="line" />
      <point x="512.0" y="1061.0" type="line" />
      <point x="320.0" y="1253.0" type="line" />
      <point x="128.0" y="1061.0" type="line" />
    </contour>
  </outline>
</glyph>
<glyph name="char40.uni0028" format="2">
  <advance width="1024" />
  <unicode hex="0028" />
  <outline>
    <contour>
      <point x="256.0" y="37.0" type="line" />
      <point x="256.0" y="1115.0" type="line" />
      <point x="549.0" y="1408.0" type="line" />
      <point x="640.0" y="1317.0" type="line" />
      <point x="384.0" y="1061.0" type="line" />
      <point x="384.0" y="91.0" type="line" />
      <point x="640.0" y="-165.0" type="line" />
      <point x="549.0" y="-256.0" type="line" />
    </contour>
  </outline>
</glyph>
<glyph name="char41.uni0029" format="2">
  <advance width="1024" />
  <unicode hex="0029" />
  <outline>
    <contour>
      <point x="256.0" y="-165.0" type="line" />
      <point x="512.0" y="91.0" type="line" />
      <point x="512.0" y="1061.0" type="line" />
      <point x="256.0" y="1317.0" type="line" />
      <point x="347.0" y="1408.0" type="line" />
      <point x="640.0" y="1115.0" type="line" />
      <point x="640.0" y="37.0" type="line" />
      <point x="347.0" y="-256.0" type="line" />
    </contour>
  </outline>
</glyph>
<glyph name="char42.uni002A" format="2">
  <advance width="1024" />
  <unicode hex="002A" />
  <outline>
    <contour>
      <point x="0.0" y="475.0" type="line" />
      <point x="229.0" y="704.0" type="line" />
      <point x="0.0" y="933.0" type="line" />
      <point x="91.0" y="1024.0" type="line" />
      <point x="347.0" y="768.0" type="line" />
      <point x="384.0" y="768.0" type="line" />
      <point x="384.0" y="1152.0" type="line" />
      <point x="512.0" y="1152.0" type="line" />
      <point x="512.0" y="768.0" type="line" />
      <point x="549.0" y="768.0" type="line" />
      <point x="805.0" y="1024.0" type="line" />
      <point x="896.0" y="933.0" type="line" />
      <point x="667.0" y="704.0" type="line" />
      <point x="896.0" y="475.0" type="line" />
      <point x="805.0" y="384.0" type="line" />
      <point x="549.0" y="640.0" type="line" />
      <point x="512.0" y="640.0" type="line" />
      <point x="512.0" y="256.0" type="line" />
      <point x="384.0" y="256.0" type="line" />
      <point x="384.0" y="640.0" type="line" />
      <point x="347.0" y="640.0" type="line" />
      <point x="91.0" y="384.0" type="line" />
    </contour>
  </outline>
</glyph>
<glyph name="char43.uni002B" format="2">
  <advance width="1024" />
  <unicode hex="002B" />
  <outline>
    <contour>
      <point x="0.0" y="640.0" type="line" />
      <point x="0.0" y="768.0" type="line" />
      <point x="384.0" y="768.0" type="line" />
      <point x="384.0" y="1152.0" type="line" />
      <point x="512.0" y="1152.0" type="line" />
      <point x="512.0" y="768.0" type="line" />
      <point x="896.0" y="768.0" type="line" />
      <point x="896.0" y="640.0" type="line" />
      <point x="512.0" y="640.0" type="line" />
      <point x="512.0" y="256.0" type="line" />
      <point x="384.0" y="256.0" type="line" />
      <point x="384.0" y="640.0" type="line" />
    </contour>
  </outline>
</glyph>
<glyph name="44" format="2">
  <advance width="1024" />
  <unicode hex="002C" />
  <outline>
    <contour>
      <point x="256.0" y="-165.0" type="line" />
      <point x="549.0" y="128.0" type="line" />
      <point x="640.0" y="37.0" type="line" />
      <point x="347.0" y="-256.0" type="line" />
    </contour>
  </outline>
</glyph>
<glyph name="char44.uni002C" format="2">
  <advance width="1024" />
  <unicode hex="002C" />
  <outline>
    <contour>
      <point x="256.0" y="-165.0" type="line" />
      <point x="549.0" y="128.0" type="line" />
      <point x="640.0" y="37.0" type="line" />
      <point x="347.0" y="-256.0" type="line" />
    </contour>
  </outline>
</glyph>
<glyph name="char45.uni002D" format="2">
  <advance width="1024" />
  <unicode hex="002D" />
  <outline>
    <contour>
      <point x="0.0" y="640.0" type="line" />
      <point x="0.0" y="768.0" type="line" />
      <point x="896.0" y="768.0" type="line" />
      <point x="896.0" y="640.0" type="line" />
    </contour>
  </outline>
</glyph>
<glyph name="49" format="2">
  <advance width="1024" />
  <unicode hex="0031" />
  <outline>
    <contour>
      <point x="256.0" y="1115.0" type="line" />
      <point x="549.0" y="1408.0" type="line" />
      <point x="640.0" y="1408.0" type="line" />
      <point x="640.0" y="0.0" type="line" />
      <point x="512.0" y="0.0" type="line" />
      <point x="512.0" y="1189.0" type="line" />
      <point x="347.0" y="1024.0" type="line" />
    </contour>
  </outline>
</glyph>
<glyph name="51" format="2">
  <advance width="1024" />
  <unicode hex="0033" />
  <outline>
    <contour>
      <point x="0.0" y="293.0" type="line" />
      <point x="91.0" y="384.0" type="line" />
      <point x="347.0" y="128.0" type="line" />
      <point x="549.0" y="128.0" type="line" />
      <point x="768.0" y="347.0" type="line" />
      <point x="768.0" y="421.0" type="line" />
      <point x="549.0" y="640.0" type="line" />
      <point x="384.0" y="640.0" type="line" />
      <point x="384.0" y="768.0" type="line" />
      <point x="549.0" y="768.0" type="line" />
      <point x="768.0" y="987.0" type="line" />
      <point x="768.0" y="1061.0" type="line" />
      <point x="549.0" y="1280.0" type="line" />
      <point x="347.0" y="1280.0" type="line" />
      <point x="91.0" y="1024.0" type="line" />
      <point x="0.0" y="1115.0" type="line" />
      <point x="293.0" y="1408.0" type="line" />
      <point x="603.0" y="1408.0" type="line" />
      <point x="896.0" y="1115.0" type="line" />
      <point x="896.0" y="933.0" type="line" />
      <point x="667.0" y="704.0" type="line" />
      <point x="896.0" y="475.0" type="line" />
      <point x="896.0" y="293.0" type="line" />
      <point x="603.0" y="0.0" type="line" />
      <point x="293.0" y="0.0" type="line" />
    </contour>
  </outline>
</glyph>
<glyph name="char52.uni0034" format="2">
  <advance width="1024" />
  <unicode hex="0034" />
  <outline>
    <contour>
      <point x="0.0" y="640.0" type="line" />
      <point x="0.0" y="731.0" type="line" />
      <point x="677.0" y="1408.0" type="line" />
      <point x="768.0" y="1408.0" type="line" />
      <point x="768.0" y="768.0" type="line" />
      <point x="896.0" y="768.0" type="line" />
      <point x="896.0" y="640.0" type="line" />
      <point x="768.0" y="640.0" type="line" />
      <point x="768.0" y="0.0" type="line" />
      <point x="640.0" y="0.0" type="line" />
      <point x="640.0" y="640.0" type="line" />
    </contour>
    <contour>
      <point x="219.0" y="768.0" type="line" />
      <point x="640.0" y="768.0" type="line" />
      <point x="640.0" y="1189.0" type="line" />
    </contour>
  </outline>
</glyph>
<glyph name="char55.uni0037" format="2">
  <advance width="1024" />
  <unicode hex="0037" />
  <outline>
    <contour>
      <point x="0.0" y="1280.0" type="line" />
      <point x="0.0" y="1408.0" type="line" />
      <point x="896.0" y="1408.0" type="line" />
      <point x="896.0" y="1061.0" type="line" />
      <point x="512.0" y="677.0" type="line" />
      <point x="512.0" y="0.0" type="line" />
      <point x="384.0" y="0.0" type="line" />
      <point x="384.0" y="731.0" type="line" />
      <point x="768.0" y="1115.0" type="line" />
      <point x="768.0" y="1280.0" type="line" />
    </contour>
  </outline>
</glyph>
<glyph name="58" format="2">
  <advance width="1024" />
  <unicode hex="003A" />
  <outline>
    <contour>
      <point x="384.0" y="256.0" type="line" />
      <point x="384.0" y="384.0" type="line" />
      <point x="512.0" y="384.0" type="line" />
      <point x="512.0" y="256.0" type="line" />
    </contour>
    <contour>
      <point x="384.0" y="1024.0" type="line" />
      <point x="384.0" y="1152.0" type="line" />
      <point x="512.0" y="1152.0" type="line" />
      <point x="512.0" y="1024.0" type="line" />
    </contour>
  </outline>
</glyph>
<glyph name="59" format="2">
  <advance width="1024" />
  <unicode hex="003B" />
  <outline>
    <contour>
      <point x="256.0" y="91.0" type="line" />
      <point x="549.0" y="384.0" type="line" />
      <point x="640.0" y="293.0" type="line" />
      <point x="347.0" y="0.0" type="line" />
    </contour>
    <contour>
      <point x="512.0" y="1024.0" type="line" />
      <point x="512.0" y="1152.0" type="line" />
      <point x="640.0" y="1152.0" type="line" />
      <point x="640.0" y="1024.0" type="line" />
    </contour>
  </outline>
</glyph>
<glyph name="60" format="2">
  <advance width="1024" />
  <unicode hex="003C" />
  <outline>
    <contour>
      <point x="101.0" y="704.0" type="line" />
      <point x="677.0" y="1280.0" type="line" />
      <point x="768.0" y="1189.0" type="line" />
      <point x="283.0" y="704.0" type="line" />
      <point x="768.0" y="219.0" type="line" />
      <point x="677.0" y="128.0" type="line" />
    </contour>
  </outline>
</glyph>
<glyph name="char61.uni003D" format="2">
  <advance width="1024" />
  <unicode hex="003D" />
  <outline>
    <contour>
      <point x="0.0" y="384.0" type="line" />
      <point x="0.0" y="512.0" type="line" />
      <point x="896.0" y="512.0" type="line" />
      <point x="896.0" y="384.0" type="line" />
    </contour>
    <contour>
      <point x="0.0" y="896.0" type="line" />
      <point x="0.0" y="1024.0" type="line" />
      <point x="896.0" y="1024.0" type="line" />
      <point x="896.0" y="896.0" type="line" />
    </contour>
  </outline>
</glyph>
<glyph name="char62.uni003E" format="2">
  <advance width="1024" />
  <unicode hex="003E" />
  <outline>
    <contour>
      <point x="128.0" y="219.0" type="line" />
      <point x="613.0" y="704.0" type="line" />
      <point x="128.0" y="1189.0" type="line" />
      <point x="219.0" y="1280.0" type="line" />
      <point x="795.0" y="704.0" type="line" />
      <point x="219.0" y="128.0" type="line" />
    </contour>
  </outline>
</glyph>
<glyph name="64" format="2">
  <advance width="1024" />
  <unicode hex="0040" />
  <outline>
    <contour>
      <point x="0.0" y="293.0" type="line" />
      <point x="0.0" y="1115.0" type="line" />
      <point x="293.0" y="1408.0" type="line" />
      <point x="603.0" y="1408.0" type="line" />
      <point x="896.0" y="1115.0" type="line" />
      <point x="896.0" y="384.0" type="line" />
      <point x="421.0" y="384.0" type="line" />
      <point x="256.0" y="549.0" type="line" />
      <point x="256.0" y="859.0" type="line" />
      <point x="421.0" y="1024.0" type="line" />
      <point x="640.0" y="1024.0" type="line" />
      <point x="640.0" y="512.0" type="line" />
      <point x="768.0" y="512.0" type="line" />
      <point x="768.0" y="1061.0" type="line" />
      <point x="549.0" y="1280.0" type="line" />
      <point x="347.0" y="1280.0" type="line" />
      <point x="128.0" y="1061.0" type="line" />
      <point x="128.0" y="347.0" type="line" />
      <point x="347.0" y="128.0" type="line" />
      <point x="677.0" y="128.0" type="line" />
      <point x="805.0" y="256.0" type="line" />
      <point x="896.0" y="165.0" type="line" />
      <point x="731.0" y="0.0" type="line" />
      <point x="293.0" y="0.0" type="line" />
    </contour>
    <contour>
      <point x="384.0" y="603.0" type="line" />
      <point x="475.0" y="512.0" type="line" />
      <point x="512.0" y="512.0" type="line" />
      <point x="512.0" y="896.0" type="line" />
      <point x="475.0" y="896.0" type="line" />
      <point x="384.0" y="805.0" type="line" />
    </contour>
  </outline>
</glyph>
<glyph name="char67.uni0043" format="2">
  <advance width="1024" />
  <unicode hex="0043" />
  <outline>
    <contour>
      <point x="0.0" y="293.0" type="line" />
      <point x="0.0" y="1115.0" type="line" />
      <point x="293.0" y="1408.0" type="line" />
      <point x="603.0" y="1408.0" type="line" />
      <point x="896.0" y="1115.0" type="line" />
      <point x="805.0" y="1024.0" type="line" />
      <point x="549.0" y="1280.0" type="line" />
      <point x="347.0" y="1280.0" type="line" />
      <point x="128.0" y="1061.0" type="line" />
      <point x="128.0" y="347.0" type="line" />
      <point x="347.0" y="128.0" type="line" />
      <point x="549.0" y="128.0" type="line" />
      <point x="805.0" y="384.0" type="line" />
      <point x="896.0" y="293.0" type="line" />
      <point x="603.0" y="0.0" type="line" />
      <point x="293.0" y="0.0" type="line" />
    </contour>
  </outline>
</glyph>
<glyph name="char69.uni0045" format="2">
  <advance width="1024" />
  <unicode hex="0045" />
  <outline>
    <contour>
      <point x="0.0" y="0.0" type="line" />
      <point x="0.0" y="1408.0" type="line" />
      <point x="896.0" y="1408.0" type="line" />
      <point x="896.0" y="1280.0" type="line" />
      <point x="128.0" y="1280.0" type="line" />
      <point x="128.0" y="768.0" type="line" />
      <point x="768.0" y="768.0" type="line" />
      <point x="768.0" y="640.0" type="line" />
      <point x="128.0" y="640.0" type="line" />
      <point x="128.0" y="128.0" type="line" />
      <point x="896.0" y="128.0" type="line" />
      <point x="896.0" y="0.0" type="line" />
    </contour>
  </outline>
</glyph>
<glyph name="70" format="2">
  <advance width="1024" />
  <unicode hex="0046" />
  <outline>
    <contour>
      <point x="0.0" y="0.0" type="line" />
      <point x="0.0" y="1408.0" type="line" />
      <point x="896.0" y="1408.0" type="line" />
      <point x="896.0" y="1280.0" type="line" />
      <point x="128.0" y="1280.0" type="line" />
      <point x="128.0" y="768.0" type="line" />
      <point x="768.0" y="768.0" type="line" />
      <point x="768.0" y="640.0" type="line" />
      <point x="128.0" y="640.0" type="line" />
      <point x="128.0" y="0.0" type="line" />
    </contour>
  </outline>
</glyph>
<glyph name="73" format="2">
  <advance width="1024" />
  <unicode hex="0049" />
  <outline>
    <contour>
      <point x="128.0" y="0.0" type="line" />
      <point x="128.0" y="128.0" type="line" />
      <point x="384.0" y="128.0" type="line" />
      <point x="384.0" y="1280.0" type="line" />
      <point x="128.0" y="1280.0" type="line" />
      <point x="128.0" y="1408.0" type="line" />
      <point x="768.0" y="1408.0" type="line" />
      <point x="768.0" y="1280.0" type="line" />
      <point x="512.0" y="1280.0" type="line" />
      <point x="512.0" y="128.0" type="line" />
      <point x="768.0" y="128.0" type="line" />
      <point x="768.0" y="0.0" type="line" />
    </contour>
  </outline>
</glyph>
<glyph name="char75.uni004B" format="2">
  <advance width="1024" />
  <unicode hex="004B" />
  <outline>
    <contour>
      <point x="0.0" y="0.0" type="line" />
      <point x="0.0" y="1408.0" type="line" />
      <point x="128.0" y="1408.0" type="line" />
      <point x="128.0" y="768.0" type="line" />
      <point x="165.0" y="768.0" type="line" />
      <point x="805.0" y="1408.0" type="line" />
      <point x="896.0" y="1317.0" type="line" />
      <point x="283.0" y="704.0" type="line" />
      <point x="896.0" y="91.0" type="line" />
      <point x="805.0" y="0.0" type="line" />
      <point x="165.0" y="640.0" type="line" />
      <point x="128.0" y="640.0" type="line" />
      <point x="128.0" y="0.0" type="line" />
    </contour>
  </outline>
</glyph>
<glyph name="char76.uni004C" format="2">
  <advance width="1024" />
  <unicode hex="004C" />
  <outline>
    <contour>
      <point x="0.0" y="0.0" type="line" />
      <point x="0.0" y="1408.0" type="line" />
      <point x="128.0" y="1408.0" type="line" />
      <point x="128.0" y="128.0" type="line" />
      <point x="896.0" y="128.0" type="line" />
      <point x="896.0" y="0.0" type="line" />
    </contour>
  </outline>
</glyph>
<glyph name="81" format="2">
  <advance width="1024" />
  <unicode hex="0051" />
  <outline>
    <contour>
      <point x="0.0" y="293.0" type="line" />
      <point x="0.0" y="1115.0" type="line" />
      <point x="293.0" y="1408.0" type="line" />
      <point x="603.0" y="1408.0" type="line" />
      <point x="896.0" y="1115.0" type="line" />
      <point x="896.0" y="293.0" type="line" />
      <point x="795.0" y="192.0" type="line" />
      <point x="896.0" y="91.0" type="line" />
      <point x="805.0" y="0.0" type="line" />
      <point x="704.0" y="101.0" type="line" />
      <point x="603.0" y="0.0" type="line" />
      <point x="293.0" y="0.0" type="line" />
    </contour>
    <contour>
      <point x="128.0" y="347.0" type="line" />
      <point x="347.0" y="128.0" type="line" />
      <point x="549.0" y="128.0" type="line" />
      <point x="613.0" y="192.0" type="line" />
      <point x="512.0" y="293.0" type="line" />
      <point x="603.0" y="384.0" type="line" />
      <point x="704.0" y="283.0" type="line" />
      <point x="768.0" y="347.0" type="line" />
      <point x="768.0" y="1061.0" type="line" />
      <point x="549.0" y="1280.0" type="line" />
      <point x="347.0" y="1280.0" type="line" />
      <point x="128.0" y="1061.0" type="line" />
    </contour>
  </outline>
</glyph>
<glyph name="84" format="2">
  <advance width="1024" />
  <unicode hex="0054" />
  <outline>
    <contour>
      <point x="0.0" y="1280.0" type="line" />
      <point x="0.0" y="1408.0" type="line" />
      <point x="896.0" y="1408.0" type="line" />
      <point x="896.0" y="1280.0" type="line" />
      <point x="512.0" y="1280.0" type="line" />
      <point x="512.0" y="0.0" type="line" />
      <point x="384.0" y="0.0" type="line" />
      <point x="384.0" y="1280.0" type="line" />
    </contour>
  </outline>
</glyph>
<glyph name="char86.uni0056" format="2">
  <advance width="1024" />
  <unicode hex="0056" />
  <outline>
    <contour>
      <point x="0.0" y="421.0" type="line" />
      <point x="0.0" y="1408.0" type="line" />
      <point x="128.0" y="1408.0" type="line" />
      <point x="128.0" y="475.0" type="line" />
      <point x="448.0" y="155.0" type="line" />
      <point x="768.0" y="475.0" type="line" />
      <point x="768.0" y="1408.0" type="line" />
      <point x="896.0" y="1408.0" type="line" />
      <point x="896.0" y="421.0" type="line" />
      <point x="448.0" y="-27.0" type="line" />
    </contour>
  </outline>
</glyph>
<glyph name="char87.uni0057" format="2">
  <advance width="1024" />
  <unicode hex="0057" />
  <outline>
    <contour>
      <point x="0.0" y="0.0" type="line" />
      <point x="0.0" y="1408.0" type="line" />
      <point x="128.0" y="1408.0" type="line" />
      <point x="128.0" y="219.0" type="line" />
      <point x="448.0" y="539.0" type="line" />
      <point x="768.0" y="219.0" type="line" />
      <point x="768.0" y="1408.0" type="line" />
      <point x="896.0" y="1408.0" type="line" />
      <point x="896.0" y="0.0" type="line" />
      <point x="805.0" y="0.0" type="line" />
      <point x="448.0" y="357.0" type="line" />
      <point x="91.0" y="0.0" type="line" />
    </contour>
  </outline>
</glyph>
<glyph name="char88.uni0058" format="2">
  <advance width="1024" />
  <unicode hex="0058" />
  <outline>
    <contour>
      <point x="0.0" y="0.0" type="line" />
      <point x="0.0" y="347.0" type="line" />
      <point x="357.0" y="704.0" type="line" />
      <point x="0.0" y="1061.0" type="line" />
      <point x="0.0" y="1408.0" type="line" />
      <point x="128.0" y="1408.0" type="line" />
      <point x="128.0" y="1115.0" type="line" />
      <point x="448.0" y="795.0" type="line" />
      <point x="768.0" y="1115.0" type="line" />
      <point x="768.0" y="1408.0" type="line" />
      <point x="896.0" y="1408.0" type="line" />
      <point x="896.0" y="1061.0" type="line" />
      <point x="539.0" y="704.0" type="line" />
      <point x="896.0" y="347.0" type="line" />
      <point x="896.0" y="0.0" type="line" />
      <point x="768.0" y="0.0" type="line" />
      <point x="768.0" y="293.0" type="line" />
      <point x="448.0" y="613.0" type="line" />
      <point x="128.0" y="293.0" type="line" />
      <point x="128.0" y="0.0" type="line" />
    </contour>
  </outline>
</glyph>
<glyph name="char91.uni005B" format="2">
  <advance width="1024" />
  <unicode hex="005B" />
  <outline>
    <contour>
      <point x="256.0" y="-256.0" type="line" />
      <point x="256.0" y="1408.0" type="line" />
      <point x="640.0" y="1408.0" type="line" />
      <point x="640.0" y="1280.0" type="line" />
      <point x="384.0" y="1280.0" type="line" />
      <point x="384.0" y="-128.0" type="line" />
      <point x="640.0" y="-128.0" type="line" />
      <point x="640.0" y="-256.0" type="line" />
    </contour>
  </outline>
</glyph>
<glyph name="92" format="2">
  <advance width="1024" />
  <unicode hex="005C" />
  <outline>
    <contour>
      <point x="0.0" y="1061.0" type="line" />
      <point x="91.0" y="1152.0" type="line" />
      <point x="896.0" y="347.0" type="line" />
      <point x="805.0" y="256.0" type="line" />
    </contour>
  </outline>
</glyph>
<glyph name="char93.uni005D" format="2">
  <advance width="1024" />
  <unicode hex="005D" />
  <outline>
    <contour>
      <point x="256.0" y="-128.0" type="line" />
      <point x="512.0" y="-128.0" type="line" />
      <point x="512.0" y="1280.0" type="line" />
      <point x="256.0" y="1280.0" type="line" />
      <point x="256.0" y="1408.0" type="line" />
      <point x="640.0" y="1408.0" type="line" />
      <point x="640.0" y="-256.0" type="line" />
      <point x="256.0" y="-256.0" type="line" />
    </contour>
  </outline>
</glyph>
<glyph name="94" format="2">
  <advance width="1024" />
  <unicode hex="005E" />
  <outline>
    <contour>
      <point x="128.0" y="1115.0" type="line" />
      <point x="448.0" y="1435.0" type="line" />
      <point x="768.0" y="1115.0" type="line" />
      <point x="677.0" y="1024.0" type="line" />
      <point x="448.0" y="1253.0" type="line" />
      <point x="219.0" y="1024.0" type="line" />
    </contour>
  </outline>
</glyph>
<glyph name="char95.uni005F" format="2">
  <advance width="1024" />
  <unicode hex="005F" />
  <outline>
    <contour>
      <point x="128.0" y="0.0" type="line" />
      <point x="128.0" y="128.0" type="line" />
      <point x="768.0" y="128.0" type="line" />
      <point x="768.0" y="0.0" type="line" />
    </contour>
  </outline>
</glyph>
<glyph name="char102.uni0066" format="2">
  <advance width="1024" />
  <unicode hex="0066" />
  <outline>
    <contour>
      <point x="0.0" y="768.0" type="line" />
      <point x="0.0" y="896.0" type="line" />
      <point x="256.0" y="896.0" type="line" />
      <point x="256.0" y="1115.0" type="line" />
      <point x="549.0" y="1408.0" type="line" />
      <point x="896.0" y="1408.0" type="line" />
      <point x="896.0" y="1280.0" type="line" />
      <point x="603.0" y="1280.0" type="line" />
      <point x="384.0" y="1061.0" type="line" />
      <point x="384.0" y="987.0" type="line" />
      <point x="384.0" y="896.0" type="line" />
      <point x="640.0" y="896.0" type="line" />
      <point x="640.0" y="768.0" type="line" />
      <point x="384.0" y="768.0" type="line" />
      <point x="384.0" y="0.0" type="line" />
      <point x="256.0" y="0.0" type="line" />
      <point x="256.0" y="768.0" type="line" />
    </contour>
  </outline>
</glyph>
<glyph name="char104.uni0068" format="2">
  <advance width="1024" />
  <unicode hex="0068" />
  <outline>
    <contour>
      <point x="0.0" y="0.0" type="line" />
      <point x="0.0" y="1408.0" type="line" />
      <point x="128.0" y="1408.0" type="line" />
      <point x="128.0" y="896.0" type="line" />
      <point x="603.0" y="896.0" type="line" />
      <point x="896.0" y="603.0" type="line" />
      <point x="896.0" y="0.0" type="line" />
      <point x="768.0" y="0.0" type="line" />
      <point x="768.0" y="549.0" type="line" />
      <point x="549.0" y="768.0" type="line" />
      <point x="128.0" y="768.0" type="line" />
      <point x="128.0" y="0.0" type="line" />
    </contour>
  </outline>
</glyph>
<glyph name="char105.uni0069" format="2">
  <advance width="1024" />
  <unicode hex="0069" />
  <outline>
    <contour>
      <point x="0.0" y="0.0" type="line" />
      <point x="0.0" y="128.0" type="line" />
      <point x="384.0" y="128.0" type="line" />
      <point x="384.0" y="768.0" type="line" />
      <point x="128.0" y="768.0" type="line" />
      <point x="128.0" y="896.0" type="line" />
      <point x="512.0" y="896.0" type="line" />
      <point x="512.0" y="128.0" type="line" />
      <point x="896.0" y="128.0" type="line" />
      <point x="896.0" y="0.0" type="line" />
    </contour>
    <contour>
      <point x="384.0" y="1152.0" type="line" />
      <point x="384.0" y="1280.0" type="line" />
      <point x="512.0" y="1280.0" type="line" />
      <point x="512.0" y="1152.0" type="line" />
    </contour>
  </outline>
</glyph>
<glyph name="char106.uni006A" format="2">
  <advance width="1024" />
  <unicode hex="006A" />
  <outline>
    <contour>
      <point x="128.0" y="-384.0" type="line" />
      <point x="421.0" y="-384.0" type="line" />
      <point x="640.0" y="-165.0" type="line" />
      <point x="640.0" y="768.0" type="line" />
      <point x="384.0" y="768.0" type="line" />
      <point x="384.0" y="896.0" type="line" />
      <point x="768.0" y="896.0" type="line" />
      <point x="768.0" y="-219.0" type="line" />
      <point x="475.0" y="-512.0" type="line" />
      <point x="128.0" y="-512.0" type="line" />
    </contour>
    <contour>
      <point x="640.0" y="1152.0" type="line" />
      <point x="640.0" y="1280.0" type="line" />
      <point x="768.0" y="1280.0" type="line" />
      <point x="768.0" y="1152.0" type="line" />
    </contour>
  </outline>
</glyph>
<glyph name="107" format="2">
  <advance width="1024" />
  <unicode hex="006B" />
  <outline>
    <contour>
      <point x="128.0" y="0.0" type="line" />
      <point x="128.0" y="1408.0" type="line" />
      <point x="256.0" y="1408.0" type="line" />
      <point x="256.0" y="512.0" type="line" />
      <point x="293.0" y="512.0" type="line" />
      <point x="677.0" y="896.0" type="line" />
      <point x="768.0" y="805.0" type="line" />
      <point x="411.0" y="448.0" type="line" />
      <point x="768.0" y="91.0" type="line" />
      <point x="677.0" y="0.0" type="line" />
      <point x="293.0" y="384.0" type="line" />
      <point x="256.0" y="384.0" type="line" />
      <point x="256.0" y="0.0" type="line" />
    </contour>
  </outline>
</glyph>
<glyph name="char111.uni006F" format="2">
  <advance width="1024" />
  <unicode hex="006F" />
  <outline>
    <contour>
      <point x="0.0" y="293.0" type="line" />
      <point x="0.0" y="603.0" type="line" />
      <point x="293.0" y="896.0" type="line" />
      <point x="603.0" y="896.0" type="line" />
      <point x="896.0" y="603.0" type="line" />
      <point x="896.0" y="293.0" type="line" />
      <point x="603.0" y="0.0" type="line" />
      <point x="293.0" y="0.0" type="line" />
    </contour>
    <contour>
      <point x="128.0" y="347.0" type="line" />
      <point x="347.0" y="128.0" type="line" />
      <point x="549.0" y="128.0" type="line" />
      <point x="768.0" y="347.0" type="line" />
      <point x="768.0" y="549.0" type="line" />
      <point x="549.0" y="768.0" type="line" />
      <point x="347.0" y="768.0" type="line" />
      <point x="128.0" y="549.0" type="line" />
    </contour>
  </outline>
</glyph>
<glyph name="114" format="2">
  <advance width="1024" />
  <unicode hex="0072" />
  <outline>
    <contour>
      <point x="0.0" y="0.0" type="line" />
      <point x="0.0" y="896.0" type="line" />
      <point x="603.0" y="896.0" type="line" />
      <point x="896.0" y="603.0" type="line" />
      <point x="805.0" y="512.0" type="line" />
      <point x="549.0" y="768.0" type="line" />
      <point x="128.0" y="768.0" type="line" />
      <point x="128.0" y="0.0" type="line" />
    </contour>
  </outline>
</glyph>
<glyph name="115" format="2">
  <advance width="1024" />
  <unicode hex="0073" />
  <outline>
    <contour>
      <point x="0.0" y="549.0" type="line" />
      <point x="0.0" y="603.0" type="line" />
      <point x="293.0" y="896.0" type="line" />
      <point x="768.0" y="896.0" type="line" />
      <point x="768.0" y="768.0" type="line" />
      <point x="347.0" y="768.0" type="line" />
      <point x="155.0" y="576.0" type="line" />
      <point x="219.0" y="512.0" type="line" />
      <point x="731.0" y="512.0" type="line" />
      <point x="896.0" y="347.0" type="line" />
      <point x="896.0" y="293.0" type="line" />
      <point x="603.0" y="0.0" type="line" />
      <point x="128.0" y="0.0" type="line" />
      <point x="128.0" y="128.0" type="line" />
      <point x="549.0" y="128.0" type="line" />
      <point x="741.0" y="320.0" type="line" />
      <point x="677.0" y="384.0" type="line" />
      <point x="165.0" y="384.0" type="line" />
    </contour>
  </outline>
</glyph>
<glyph name="char116.uni0074" format="2">
  <advance width="1024" />
  <unicode hex="0074" />
  <outline>
    <contour>
      <point x="0.0" y="768.0" type="line" />
      <point x="0.0" y="896.0" type="line" />
      <point x="384.0" y="896.0" type="line" />
      <point x="384.0" y="1408.0" type="line" />
      <point x="512.0" y="1408.0" type="line" />
      <point x="512.0" y="896.0" type="line" />
      <point x="896.0" y="896.0" type="line" />
      <point x="896.0" y="768.0" type="line" />
      <point x="512.0" y="768.0" type="line" />
      <point x="512.0" y="0.0" type="line" />
      <point x="384.0" y="0.0" type="line" />
      <point x="384.0" y="768.0" type="line" />
    </contour>
  </outline>
</glyph>
<glyph name="char117.uni0075" format="2">
  <advance width="1024" />
  <unicode hex="0075" />
  <outline>
    <contour>
      <point x="0.0" y="293.0" type="line" />
      <point x="0.0" y="896.0" type="line" />
      <point x="128.0" y="896.0" type="line" />
      <point x="128.0" y="347.0" type="line" />
      <point x="347.0" y="128.0" type="line" />
      <point x="549.0" y="128.0" type="line" />
      <point x="768.0" y="347.0" type="line" />
      <point x="768.0" y="896.0" type="line" />
      <point x="896.0" y="896.0" type="line" />
      <point x="896.0" y="293.0" type="line" />
      <point x="603.0" y="0.0" type="line" />
      <point x="293.0" y="0.0" type="line" />
    </contour>
  </outline>
</glyph>
<glyph name="char118.uni0076" format="2">
  <advance width="1024" />
  <unicode hex="0076" />
  <outline>
    <contour>
      <point x="0.0" y="421.0" type="line" />
      <point x="0.0" y="896.0" type="line" />
      <point x="128.0" y="896.0" type="line" />
      <point x="128.0" y="475.0" type="line" />
      <point x="448.0" y="155.0" type="line" />
      <point x="768.0" y="475.0" type="line" />
      <point x="768.0" y="896.0" type="line" />
      <point x="896.0" y="896.0" type="line" />
      <point x="896.0" y="421.0" type="line" />
      <point x="448.0" y="-27.0" type="line" />
    </contour>
  </outline>
</glyph>
<glyph name="119" format="2">
  <advance width="1024" />
  <unicode hex="0077" />
  <outline>
    <contour>
      <point x="0.0" y="165.0" type="line" />
      <point x="165.0" y="0.0" type="line" />
      <point x="347.0" y="0.0" type="line" />
      <point x="448.0" y="101.0" type="line" />
      <point x="549.0" y="0.0" type="line" />
      <point x="731.0" y="0.0" type="line" />
      <point x="896.0" y="165.0" type="line" />
      <point x="896.0" y="896.0" type="line" />
      <point x="768.0" y="896.0" type="line" />
      <point x="768.0" y="219.0" type="line" />
      <point x="677.0" y="128.0" type="line" />
      <point x="603.0" y="128.0" type="line" />
      <point x="512.0" y="219.0" type="line" />
      <point x="512.0" y="896.0" type="line" />
      <point x="384.0" y="896.0" type="line" />
      <point x="384.0" y="219.0" type="line" />
      <point x="293.0" y="128.0" type="line" />
      <point x="219.0" y="128.0" type="line" />
      <point x="128.0" y="219.0" type="line" />
      <point x="128.0" y="896.0" type="line" />
      <point x="0.0" y="896.0" type="line" />
    </contour>
  </outline>
</glyph>
<glyph name="char120.uni0078" format="2">
  <advance width="1024" />
  <unicode hex="0078" />
  <outline>
    <contour>
      <point x="0.0" y="91.0" type="line" />
      <point x="357.0" y="448.0" type="line" />
      <point x="0.0" y="805.0" type="line" />
      <point x="91.0" y="896.0" type="line" />
      <point x="448.0" y="539.0" type="line" />
      <point x="805.0" y="896.0" type="line" />
      <point x="896.0" y="805.0" type="line" />
      <point x="539.0" y="448.0" type="line" />
      <point x="896.0" y="91.0" type="line" />
      <point x="805.0" y="0.0" type="line" />
      <point x="448.0" y="357.0" type="line" />
      <point x="91.0" y="0.0" type="line" />
    </contour>
  </outline>
</glyph>
<glyph name="121" format="2">
  <advance width="1024" />
  <unicode hex="0079" />
  <outline>
    <contour>
      <point x="0.0" y="293.0" type="line" />
      <point x="0.0" y="896.0" type="line" />
      <point x="128.0" y="896.0" type="line" />
      <point x="128.0" y="347.0" type="line" />
      <point x="347.0" y="128.0" type="line" />
      <point x="768.0" y="128.0" type="line" />
      <point x="768.0" y="896.0" type="line" />
      <point x="896.0" y="896.0" type="line" />
      <point x="896.0" y="-219.0" type="line" />
      <point x="603.0" y="-512.0" type="line" />
      <point x="256.0" y="-512.0" type="line" />
      <point x="256.0" y="-384.0" type="line" />
      <point x="549.0" y="-384.0" type="line" />
      <point x="768.0" y="-165.0" type="line" />
      <point x="768.0" y="0.0" type="line" />
      <point x="293.0" y="0.0" type="line" />
    </contour>
  </outline>
</glyph>
<glyph name="char122.uni007A" format="2">
  <advance width="1024" />
  <unicode hex="007A" />
  <outline>
    <contour>
      <point x="0.0" y="0.0" type="line" />
      <point x="0.0" y="91.0" type="line" />
      <point x="677.0" y="768.0" type="line" />
      <point x="0.0" y="768.0" type="line" />
      <point x="0.0" y="896.0" type="line" />
      <point x="896.0" y="896.0" type="line" />
      <point x="896.0" y="805.0" type="line" />
      <point x="219.0" y="128.0" type="line" />
      <point x="896.0" y="128.0" type="line" />
      <point x="896.0" y="0.0" type="line" />
    </contour>
  </outline>
</glyph>
<glyph name="char123.uni007B" format="2">
  <advance width="1024" />
  <unicode hex="007B" />
  <outline>
    <contour>
      <point x="229.0" y="576.0" type="line" />
      <point x="384.0" y="731.0" type="line" />
      <point x="384.0" y="1243.0" type="line" />
      <point x="549.0" y="1408.0" type="line" />
      <point x="640.0" y="1317.0" type="line" />
      <point x="512.0" y="1189.0" type="line" />
      <point x="512.0" y="677.0" type="line" />
      <point x="411.0" y="576.0" type="line" />
      <point x="512.0" y="475.0" type="line" />
      <point x="512.0" y="-37.0" type="line" />
      <point x="640.0" y="-165.0" type="line" />
      <point x="549.0" y="-256.0" type="line" />
      <point x="384.0" y="-91.0" type="line" />
      <point x="384.0" y="421.0" type="line" />
    </contour>
  </outline>
</glyph>
<glyph name="124" format="2">
  <advance width="1024" />
  <unicode hex="007C" />
  <outline>
    <contour>
      <point x="384.0" y="-256.0" type="line" />
      <point x="384.0" y="1408.0" type="line" />
      <point x="512.0" y="1408.0" type="line" />
      <point x="512.0" y="-256.0" type="line" />
    </contour>
  </outline>
</glyph>
<glyph name="125" format="2">
  <advance width="1024" />
  <unicode hex="007D" />
  <outline>
    <contour>
      <point x="256.0" y="-165.0" type="line" />
      <point x="384.0" y="-37.0" type="line" />
      <point x="384.0" y="475.0" type="line" />
      <point x="485.0" y="576.0" type="line" />
      <point x="384.0" y="677.0" type="line" />
      <point x="384.0" y="1189.0" type="line" />
      <point x="256.0" y="1317.0" type="line" />
      <point x="347.0" y="1408.0" type="line" />
      <point x="512.0" y="1243.0" type="line" />
      <point x="512.0" y="731.0" type="line" />
      <point x="667.0" y="576.0" type="line" />
      <point x="512.0" y="421.0" type="line" />
      <point x="512.0" y="-91.0" type="line" />
      <point x="347.0" y="-256.0" type="line" />
    </contour>
  </outline>
</glyph>
<glyph name="char126.uni007E" format="2">
  <advance width="1024" />
  <unicode hex="007E" />
  <outline>
    <contour>
      <point x="128.0" y="731.0" type="line" />
      <point x="293.0" y="896.0" type="line" />
      <point x="347.0" y="896.0" type="line" />
      <point x="576.0" y="667.0" type="line" />
      <point x="677.0" y="768.0" type="line" />
      <point x="768.0" y="677.0" type="line" />
      <point x="603.0" y="512.0" type="line" />
      <point x="549.0" y="512.0" type="line" />
      <point x="320.0" y="741.0" type="line" />
      <point x="219.0" y="640.0" type="line" />
    </contour>
  </outline>
</glyph>
<glyph name="logicalnot.uni00AC" format="2">
  <advance width="1024" />
  <unicode hex="00AC" />
  <outline>
    <contour>
      <point x="0.0" y="1280.0" type="line" />
      <point x="0.0" y="1408.0" type="line" />
      <point x="896.0" y="1408.0" type="line" />
      <point x="896.0" y="1024.0" type="line" />
      <point x="768.0" y="1024.0" type="line" />
      <point x="768.0" y="1280.0" type="line" />
    </contour>
  </outline>
</glyph>
<glyph name="periodcentered.uni00B7" format="2">
  <advance width="1024" />
  <unicode hex="00B7" />
  <outline>
    <contour>
      <point x="384.0" y="640.0" type="line" />
      <point x="384.0" y="768.0" type="line" />
      <point x="512.0" y="768.0" type="line" />
      <point x="512.0" y="640.0" type="line" />
    </contour>
  </outline>
</glyph>
<glyph name="multiply.uni00D7" format="2">
  <advance width="1024" />
  <unicode hex="00D7" />
  <outline>
    <contour>
      <point x="128.0" y="475.0" type="line" />
      <point x="357.0" y="704.0" type="line" />
      <point x="128.0" y="933.0" type="line" />
      <point x="219.0" y="1024.0" type="line" />
      <point x="448.0" y="795.0" type="line" />
      <point x="677.0" y="1024.0" type="line" />
      <point x="768.0" y="933.0" type="line" />
      <point x="539.0" y="704.0" type="line" />
      <point x="768.0" y="475.0" type="line" />
      <point x="677.0" y="384.0" type="line" />
      <point x="448.0" y="613.0" type="line" />
      <point x="219.0" y="384.0" type="line" />
    </contour>
  </outline>
</glyph>
<glyph name="915" format="2">
  <advance width="1024" />
  <unicode hex="0393" />
  <outline>
    <contour>
      <point x="0.0" y="0.0" type="line" />
      <point x="0.0" y="1408.0" type="line" />
      <point x="896.0" y="1408.0" type="line" />
      <point x="896.0" y="1280.0" type="line" />
      <point x="128.0" y="1280.0" type="line" />
      <point x="128.0" y="0.0" type="line" />
    </contour>
  </outline>
</glyph>
<glyph name="uni0394.uni0394" format="2">
  <advance width="2048" />
  <unicode hex="0394" />
  <outline>
    <contour>
      <point x="256.0" y="0.0" type="line" />
      <point x="1664.0" y="0.0" type="line" />
      <point x="960.0" y="1408.0" type="line" />
    </contour>
    <contour>
      <point x="465.0" y="128.0" type="line" />
      <point x="960.0" y="1118.0" type="line" />
      <point x="1455.0" y="128.0" type="line" />
    </contour>
  </outline>
</glyph>
<glyph name="Lambda.uni039B" format="2">
  <advance width="2048" />
  <unicode hex="039B" />
  <outline>
    <contour>
      <point x="256.0" y="0.0" type="line" />
      <point x="401.0" y="0.0" type="line" />
      <point x="960.0" y="1118.0" type="line" />
      <point x="1519.0" y="0.0" type="line" />
      <point x="1664.0" y="0.0" type="line" />
      <point x="960.0" y="1408.0" type="line" />
    </contour>
  </outline>
</glyph>
<glyph name="Sigma.uni03A3" format="2">
  <advance width="1024" />
  <unicode hex="03A3" />
  <outline>
    <contour>
      <point x="0.0" y="0.0" type="line" />
      <point x="0.0" y="219.0" type="line" />
      <point x="485.0" y="704.0" type="line" />
      <point x="0.0" y="1189.0" type="line" />
      <point x="0.0" y="1408.0" type="line" />
      <point x="896.0" y="1408.0" type="line" />
      <point x="896.0" y="1280.0" type="line" />
      <point x="128.0" y="1280.0" type="line" />
      <point x="128.0" y="1243.0" type="line" />
      <point x="667.0" y="704.0" type="line" />
      <point x="128.0" y="165.0" type="line" />
      <point x="128.0" y="128.0" type="line" />
      <point x="896.0" y="128.0" type="line" />
      <point x="896.0" y="0.0" type="line" />
    </contour>
  </outline>
</glyph>
<glyph name="alpha.uni03B1" format="2">
  <advance width="1024" />
  <unicode hex="03B1" />
  <outline>
    <contour>
      <point x="0.0" y="293.0" type="line" />
      <point x="0.0" y="603.0" type="line" />
      <point x="293.0" y="896.0" type="line" />
      <point x="475.0" y="896.0" type="line" />
      <point x="704.0" y="667.0" type="line" />
      <point x="768.0" y="731.0" type="line" />
      <point x="768.0" y="896.0" type="line" />
      <point x="896.0" y="896.0" type="line" />
      <point x="896.0" y="677.0" type="line" />
      <point x="768.0" y="549.0" type="line" />
      <point x="768.0" y="347.0" type="line" />
      <point x="896.0" y="219.0" type="line" />
      <point x="896.0" y="0.0" type="line" />
      <point x="768.0" y="0.0" type="line" />
      <point x="768.0" y="165.0" type="line" />
      <point x="704.0" y="229.0" type="line" />
      <point x="475.0" y="0.0" type="line" />
      <point x="293.0" y="0.0" type="line" />
    </contour>
    <contour>
      <point x="128.0" y="347.0" type="line" />
      <point x="347.0" y="128.0" type="line" />
      <point x="421.0" y="128.0" type="line" />
      <point x="640.0" y="347.0" type="line" />
      <point x="640.0" y="549.0" type="line" />
      <point x="421.0" y="768.0" type="line" />
      <point x="347.0" y="768.0" type="line" />
      <point x="128.0" y="549.0" type="line" />
    </contour>
  </outline>
</glyph>
<glyph name="946" format="2">
  <advance width="1024" />
  <unicode hex="03B2" />
  <outline>
    <contour>
      <point x="0.0" y="-256.0" type="line" />
      <point x="0.0" y="1243.0" type="line" />
      <point x="165.0" y="1408.0" type="line" />
      <point x="475.0" y="1408.0" type="line" />
      <point x="768.0" y="1115.0" type="line" />
      <point x="768.0" y="1061.0" type="line" />
      <point x="539.0" y="832.0" type="line" />
      <point x="896.0" y="475.0" type="line" />
      <point x="896.0" y="421.0" type="line" />
      <point x="475.0" y="0.0" type="line" />
      <point x="128.0" y="0.0" type="line" />
      <point x="128.0" y="-256.0" type="line" />
    </contour>
    <contour>
      <point x="128.0" y="128.0" type="line" />
      <point x="421.0" y="128.0" type="line" />
      <point x="741.0" y="448.0" type="line" />
      <point x="384.0" y="805.0" type="line" />
      <point x="384.0" y="859.0" type="line" />
      <point x="613.0" y="1088.0" type="line" />
      <point x="421.0" y="1280.0" type="line" />
      <point x="219.0" y="1280.0" type="line" />
      <point x="128.0" y="1189.0" type="line" />
    </contour>
  </outline>
</glyph>
<glyph name="947" format="2">
  <advance width="1024" />
  <unicode hex="03B3" />
  <outline>
    <contour>
      <point x="0.0" y="-128.0" type="line" />
      <point x="165.0" y="-128.0" type="line" />
      <point x="357.0" y="64.0" type="line" />
      <point x="0.0" y="421.0" type="line" />
      <point x="0.0" y="896.0" type="line" />
      <point x="128.0" y="896.0" type="line" />
      <point x="128.0" y="475.0" type="line" />
      <point x="448.0" y="155.0" type="line" />
      <point x="768.0" y="475.0" type="line" />
      <point x="768.0" y="896.0" type="line" />
      <point x="896.0" y="896.0" type="line" />
      <point x="896.0" y="421.0" type="line" />
      <point x="219.0" y="-256.0" type="line" />
      <point x="0.0" y="-256.0" type="line" />
    </contour>
  </outline>
</glyph>
<glyph name="delta.uni03B4" format="2">
  <advance width="1024" />
  <unicode hex="03B4" />
  <outline>
    <contour>
      <point x="0.0" y="293.0" type="line" />
      <point x="0.0" y="603.0" type="line" />
      <point x="229.0" y="832.0" type="line" />
      <point x="0.0" y="1061.0" type="line" />
      <point x="0.0" y="1115.0" type="line" />
      <point x="293.0" y="1408.0" type="line" />
      <point x="768.0" y="1408.0" type="line" />
      <point x="768.0" y="1280.0" type="line" />
      <point x="347.0" y="1280.0" type="line" />
      <point x="155.0" y="1088.0" type="line" />
      <point x="347.0" y="896.0" type="line" />
      <point x="603.0" y="896.0" type="line" />
      <point x="896.0" y="603.0" type="line" />
      <point x="896.0" y="293.0" type="line" />
      <point x="603.0" y="0.0" type="line" />
      <point x="293.0" y="0.0" type="line" />
    </contour>
    <contour>
      <point x="128.0" y="347.0" type="line" />
      <point x="347.0" y="128.0" type="line" />
      <point x="549.0" y="128.0" type="line" />
      <point x="768.0" y="347.0" type="line" />
      <point x="768.0" y="549.0" type="line" />
      <point x="549.0" y="768.0" type="line" />
      <point x="347.0" y="768.0" type="line" />
      <point x="128.0" y="549.0" type="line" />
    </contour>
  </outline>
</glyph>
<glyph name="chi.uni03C7" format="2">
  <advance width="1024" />
  <unicode hex="03C7" />
  <outline>
    <contour>
      <point x="0.0" y="0.0" type="line" />
      <point x="0.0" y="347.0" type="line" />
      <point x="357.0" y="704.0" type="line" />
      <point x="0.0" y="1061.0" type="line" />
      <point x="91.0" y="1152.0" type="line" />
      <point x="448.0" y="795.0" type="line" />
      <point x="768.0" y="1115.0" type="line" />
      <point x="768.0" y="1408.0" type="line" />
      <point x="896.0" y="1408.0" type="line" />
      <point x="896.0" y="1061.0" type="line" />
      <point x="539.0" y="704.0" type="line" />
      <point x="896.0" y="347.0" type="line" />
      <point x="805.0" y="256.0" type="line" />
      <point x="448.0" y="613.0" type="line" />
      <point x="128.0" y="293.0" type="line" />
      <point x="128.0" y="0.0" type="line" />
    </contour>
  </outline>
</glyph>
<glyph name="psi.uni03C8" format="2">
  <advance width="1024" />
  <unicode hex="03C8" />
  <outline>
    <contour>
      <point x="0.0" y="805.0" type="line" />
      <point x="0.0" y="1408.0" type="line" />
      <point x="128.0" y="1408.0" type="line" />
      <point x="128.0" y="859.0" type="line" />
      <point x="219.0" y="768.0" type="line" />
      <point x="384.0" y="768.0" type="line" />
      <point x="384.0" y="1408.0" type="line" />
      <point x="512.0" y="1408.0" type="line" />
      <point x="512.0" y="768.0" type="line" />
      <point x="677.0" y="768.0" type="line" />
      <point x="768.0" y="859.0" type="line" />
      <point x="768.0" y="1408.0" type="line" />
      <point x="896.0" y="1408.0" type="line" />
      <point x="896.0" y="805.0" type="line" />
      <point x="731.0" y="640.0" type="line" />
      <point x="512.0" y="640.0" type="line" />
      <point x="512.0" y="0.0" type="line" />
      <point x="384.0" y="0.0" type="line" />
      <point x="384.0" y="640.0" type="line" />
      <point x="165.0" y="640.0" type="line" />
    </contour>
  </outline>
</glyph>
<glyph name="8220" format="2">
  <advance width="1024" />
  <unicode hex="201C" />
  <outline>
    <contour>
      <point x="128.0" y="1317.0" type="line" />
      <point x="219.0" y="1408.0" type="line" />
      <point x="512.0" y="1115.0" type="line" />
      <point x="421.0" y="1024.0" type="line" />
    </contour>
    <contour>
      <point x="384.0" y="1317.0" type="line" />
      <point x="475.0" y="1408.0" type="line" />
      <point x="768.0" y="1115.0" type="line" />
      <point x="677.0" y="1024.0" type="line" />
    </contour>
  </outline>
</glyph>
<glyph name="8469" format="2">
  <advance width="1024" />
  <unicode hex="2115" />
  <outline>
    <contour>
      <point x="0.0" y="0.0" type="line" />
      <point x="0.0" y="1408.0" type="line" />
      <point x="91.0" y="1408.0" type="line" />
      <point x="768.0" y="731.0" type="line" />
      <point x="768.0" y="1408.0" type="line" />
      <point x="896.0" y="1408.0" type="line" />
      <point x="896.0" y="0.0" type="line" />
      <point x="768.0" y="0.0" type="line" />
      <point x="768.0" y="293.0" type="line" />
      <point x="128.0" y="933.0" type="line" />
      <point x="128.0" y="0.0" type="line" />
    </contour>
  </outline>
</glyph>
<glyph name="uni211D.uni211D" format="2">
  <advance width="1024" />
  <unicode hex="211D" />
  <outline>
    <contour>
      <point x="0.0" y="0.0" type="line" />
      <point x="0.0" y="1408.0" type="line" />
      <point x="603.0" y="1408.0" type="line" />
      <point x="896.0" y="1115.0" type="line" />
      <point x="896.0" y="933.0" type="line" />
      <point x="667.0" y="704.0" type="line" />
      <point x="896.0" y="475.0" type="line" />
      <point x="896.0" y="0.0" type="line" />
      <point x="768.0" y="0.0" type="line" />
      <point x="768.0" y="421.0" type="line" />
      <point x="549.0" y="640.0" type="line" />
      <point x="384.0" y="640.0" type="line" />
      <point x="384.0" y="0.0" type="line" />
      <point x="256.0" y="0.0" type="line" />
      <point x="256.0" y="1280.0" type="line" />
      <point x="128.0" y="1280.0" type="line" />
      <point x="128.0" y="0.0" type="line" />
    </contour>
    <contour>
      <point x="384.0" y="768.0" type="line" />
      <point x="549.0" y="768.0" type="line" />
      <point x="768.0" y="987.0" type="line" />
      <point x="768.0" y="1061.0" type="line" />
      <point x="549.0" y="1280.0" type="line" />
      <point x="384.0" y="1280.0" type="line" />
    </contour>
  </outline>
</glyph>
<glyph name="8484" format="2">
  <advance width="1024" />
  <unicode hex="2124" />
  <outline>
    <contour>
      <point x="0.0" y="0.0" type="line" />
      <point x="0.0" y="475.0" type="line" />
      <point x="768.0" y="1243.0" type="line" />
      <point x="768.0" y="1280.0" type="line" />
      <point x="0.0" y="1280.0" type="line" />
      <point x="0.0" y="1408.0" type="line" />
      <point x="896.0" y="1408.0" type="line" />
      <point x="896.0" y="933.0" type="line" />
      <point x="128.0" y="165.0" type="line" />
      <point x="128.0" y="128.0" type="line" />
      <point x="896.0" y="128.0" type="line" />
      <point x="896.0" y="0.0" type="line" />
    </contour>
  </outline>
</glyph>
<glyph name="arrowright.uni2192" format="2">
  <advance width="1024" />
  <unicode hex="2192" />
  <outline>
    <contour>
      <point x="0.0" y="640.0" type="line" />
      <point x="677.0" y="640.0" type="line" />
      <point x="512.0" y="475.0" type="line" />
      <point x="603.0" y="384.0" type="line" />
      <point x="896.0" y="677.0" type="line" />
      <point x="896.0" y="731.0" type="line" />
      <point x="603.0" y="1024.0" type="line" />
      <point x="512.0" y="933.0" type="line" />
      <point x="677.0" y="768.0" type="line" />
      <point x="0.0" y="768.0" type="line" />
    </contour>
  </outline>
</glyph>
<glyph name="8596" format="2">
  <advance width="1024" />
  <unicode hex="2194" />
  <outline>
    <contour>
      <point x="0.0" y="677.0" type="line" />
      <point x="0.0" y="731.0" type="line" />
      <point x="293.0" y="1024.0" type="line" />
      <point x="384.0" y="933.0" type="line" />
      <point x="219.0" y="768.0" type="line" />
      <point x="677.0" y="768.0" type="line" />
      <point x="512.0" y="933.0" type="line" />
      <point x="603.0" y="1024.0" type="line" />
      <point x="896.0" y="731.0" type="line" />
      <point x="896.0" y="677.0" type="line" />
      <point x="603.0" y="384.0" type="line" />
      <point x="512.0" y="475.0" type="line" />
      <point x="677.0" y="640.0" type="line" />
      <point x="219.0" y="640.0" type="line" />
      <point x="384.0" y="475.0" type="line" />
      <point x="293.0" y="384.0" type="line" />
    </contour>
  </outline>
</glyph>
<glyph name="universal.uni2200" format="2">
  <advance width="2048" />
  <unicode hex="2200" />
  <outline>
    <contour>
      <point x="256.0" y="1408.0" type="line" />
      <point x="401.0" y="1408.0" type="line" />
      <point x="721.0" y="768.0" type="line" />
      <point x="1199.0" y="768.0" type="line" />
      <point x="1519.0" y="1408.0" type="line" />
      <point x="1664.0" y="1408.0" type="line" />
      <point x="960.0" y="0.0" type="line" />
    </contour>
    <contour>
      <point x="785.0" y="640.0" type="line" />
      <point x="960.0" y="290.0" type="line" />
      <point x="1135.0" y="640.0" type="line" />
    </contour>
  </outline>
</glyph>
<glyph name="8706" format="2">
  <advance width="1024" />
  <unicode hex="2202" />
  <outline>
    <contour>
      <point x="0.0" y="293.0" type="line" />
      <point x="0.0" y="475.0" type="line" />
      <point x="293.0" y="768.0" type="line" />
      <point x="768.0" y="768.0" type="line" />
      <point x="768.0" y="933.0" type="line" />
      <point x="421.0" y="1280.0" type="line" />
      <point x="256.0" y="1280.0" type="line" />
      <point x="256.0" y="1408.0" type="line" />
      <point x="475.0" y="1408.0" type="line" />
      <point x="896.0" y="987.0" type="line" />
      <point x="896.0" y="165.0" type="line" />
      <point x="731.0" y="0.0" type="line" />
      <point x="293.0" y="0.0" type="line" />
    </contour>
    <contour>
      <point x="128.0" y="347.0" type="line" />
      <point x="347.0" y="128.0" type="line" />
      <point x="677.0" y="128.0" type="line" />
      <point x="768.0" y="219.0" type="line" />
      <point x="768.0" y="640.0" type="line" />
      <point x="347.0" y="640.0" type="line" />
      <point x="128.0" y="421.0" type="line" />
    </contour>
  </outline>
</glyph>
<glyph name="existential.uni2203" format="2">
  <advance width="2048" />
  <unicode hex="2203" />
  <outline>
    <contour>
      <point x="512.0" y="0.0" type="line" />
      <point x="512.0" y="128.0" type="line" />
      <point x="1280.0" y="128.0" type="line" />
      <point x="1280.0" y="640.0" type="line" />
      <point x="640.0" y="640.0" type="line" />
      <point x="640.0" y="768.0" type="line" />
      <point x="1280.0" y="768.0" type="line" />
      <point x="1280.0" y="1280.0" type="line" />
      <point x="512.0" y="1280.0" type="line" />
      <point x="512.0" y="1408.0" type="line" />
      <point x="1408.0" y="1408.0" type="line" />
      <point x="1408.0" y="0.0" type="line" />
    </contour>
  </outline>
</glyph>
<glyph name="8709" format="2">
  <advance width="2048" />
  <unicode hex="2205" />
  <outline>
    <contour>
      <point x="256.0" y="91.0" type="line" />
      <point x="421.0" y="256.0" type="line" />
      <point x="256.0" y="421.0" type="line" />
      <point x="256.0" y="987.0" type="line" />
      <point x="677.0" y="1408.0" type="line" />
      <point x="1243.0" y="1408.0" type="line" />
      <point x="1408.0" y="1243.0" type="line" />
      <point x="1573.0" y="1408.0" type="line" />
      <point x="1664.0" y="1317.0" type="line" />
      <point x="1499.0" y="1152.0" type="line" />
      <point x="1664.0" y="987.0" type="line" />
      <point x="1664.0" y="421.0" type="line" />
      <point x="1243.0" y="0.0" type="line" />
      <point x="677.0" y="0.0" type="line" />
      <point x="512.0" y="165.0" type="line" />
      <point x="347.0" y="0.0" type="line" />
    </contour>
    <contour>
      <point x="384.0" y="475.0" type="line" />
      <point x="512.0" y="347.0" type="line" />
      <point x="1317.0" y="1152.0" type="line" />
      <point x="1189.0" y="1280.0" type="line" />
      <point x="731.0" y="1280.0" type="line" />
      <point x="384.0" y="933.0" type="line" />
    </contour>
    <contour>
      <point x="603.0" y="256.0" type="line" />
      <point x="731.0" y="128.0" type="line" />
      <point x="1189.0" y="128.0" type="line" />
      <point x="1536.0" y="475.0" type="line" />
      <point x="1536.0" y="933.0" type="line" />
      <point x="1408.0" y="1061.0" type="line" />
    </contour>
  </outline>
</glyph>
<glyph name="8712" format="2">
  <advance width="1024" />
  <unicode hex="2208" />
  <outline>
    <contour>
      <point x="0.0" y="549.0" type="line" />
      <point x="0.0" y="859.0" type="line" />
      <point x="421.0" y="1280.0" type="line" />
      <point x="896.0" y="1280.0" type="line" />
      <point x="896.0" y="1152.0" type="line" />
      <point x="475.0" y="1152.0" type="line" />
      <point x="128.0" y="805.0" type="line" />
      <point x="128.0" y="768.0" type="line" />
      <point x="896.0" y="768.0" type="line" />
      <point x="896.0" y="640.0" type="line" />
      <point x="128.0" y="640.0" type="line" />
      <point x="128.0" y="603.0" type="line" />
      <point x="475.0" y="256.0" type="line" />
      <point x="896.0" y="256.0" type="line" />
      <point x="896.0" y="128.0" type="line" />
      <point x="421.0" y="128.0" type="line" />
    </contour>
  </outline>
</glyph>
<glyph name="notelement.uni2209" format="2">
  <advance width="1024" />
  <unicode hex="2209" />
  <outline>
    <contour>
      <point x="0.0" y="347.0" type="line" />
      <point x="91.0" y="256.0" type="line" />
      <point x="192.0" y="357.0" type="line" />
      <point x="421.0" y="128.0" type="line" />
      <point x="896.0" y="128.0" type="line" />
      <point x="896.0" y="256.0" type="line" />
      <point x="475.0" y="256.0" type="line" />
      <point x="283.0" y="448.0" type="line" />
      <point x="475.0" y="640.0" type="line" />
      <point x="896.0" y="640.0" type="line" />
      <point x="896.0" y="768.0" type="line" />
      <point x="603.0" y="768.0" type="line" />
      <point x="896.0" y="1061.0" type="line" />
      <point x="805.0" y="1152.0" type="line" />
      <point x="421.0" y="768.0" type="line" />
      <point x="128.0" y="768.0" type="line" />
      <point x="128.0" y="805.0" type="line" />
      <point x="475.0" y="1152.0" type="line" />
      <point x="896.0" y="1152.0" type="line" />
      <point x="896.0" y="1280.0" type="line" />
      <point x="421.0" y="1280.0" type="line" />
      <point x="0.0" y="859.0" type="line" />
      <point x="0.0" y="549.0" type="line" />
      <point x="101.0" y="448.0" type="line" />
    </contour>
    <contour>
      <point x="128.0" y="603.0" type="line" />
      <point x="128.0" y="640.0" type="line" />
      <point x="293.0" y="640.0" type="line" />
      <point x="192.0" y="539.0" type="line" />
    </contour>
  </outline>
</glyph>
<glyph name="8734" format="2">
  <advance width="1024" />
  <unicode hex="221E" />
  <outline>
    <contour>
      <point x="0.0" y="549.0" type="line" />
      <point x="0.0" y="859.0" type="line" />
      <point x="165.0" y="1024.0" type="line" />
      <point x="219.0" y="1024.0" type="line" />
      <point x="448.0" y="795.0" type="line" />
      <point x="677.0" y="1024.0" type="line" />
      <point x="731.0" y="1024.0" type="line" />
      <point x="896.0" y="859.0" type="line" />
      <point x="896.0" y="549.0" type="line" />
      <point x="731.0" y="384.0" type="line" />
      <point x="677.0" y="384.0" type="line" />
      <point x="448.0" y="613.0" type="line" />
      <point x="219.0" y="384.0" type="line" />
      <point x="165.0" y="384.0" type="line" />
    </contour>
    <contour>
      <point x="128.0" y="603.0" type="line" />
      <point x="192.0" y="539.0" type="line" />
      <point x="357.0" y="704.0" type="line" />
      <point x="192.0" y="869.0" type="line" />
      <point x="128.0" y="805.0" type="line" />
    </contour>
    <contour>
      <point x="539.0" y="704.0" type="line" />
      <point x="704.0" y="539.0" type="line" />
      <point x="768.0" y="603.0" type="line" />
      <point x="768.0" y="805.0" type="line" />
      <point x="704.0" y="869.0" type="line" />
    </contour>
  </outline>
</glyph>
<glyph name="logicaland.uni2227" format="2">
  <advance width="1024" />
  <unicode hex="2227" />
  <outline>
    <contour>
      <point x="0.0" y="475.0" type="line" />
      <point x="448.0" y="923.0" type="line" />
      <point x="896.0" y="475.0" type="line" />
      <point x="805.0" y="384.0" type="line" />
      <point x="448.0" y="741.0" type="line" />
      <point x="91.0" y="384.0" type="line" />
    </contour>
  </outline>
</glyph>
<glyph name="logicalor.uni2228" format="2">
  <advance width="1024" />
  <unicode hex="2228" />
  <outline>
    <contour>
      <point x="0.0" y="805.0" type="line" />
      <point x="448.0" y="357.0" type="line" />
      <point x="896.0" y="805.0" type="line" />
      <point x="805.0" y="896.0" type="line" />
      <point x="448.0" y="539.0" type="line" />
      <point x="91.0" y="896.0" type="line" />
    </contour>
  </outline>
</glyph>
<glyph name="8804" format="2">
  <advance width="1024" />
  <unicode hex="2264" />
  <outline>
    <contour>
      <point x="101.0" y="832.0" type="line" />
      <point x="677.0" y="1408.0" type="line" />
      <point x="768.0" y="1317.0" type="line" />
      <point x="283.0" y="832.0" type="line" />
      <point x="768.0" y="347.0" type="line" />
      <point x="677.0" y="256.0" type="line" />
    </contour>
    <contour>
      <point x="128.0" y="0.0" type="line" />
      <point x="128.0" y="128.0" type="line" />
      <point x="768.0" y="128.0" type="line" />
      <point x="768.0" y="0.0" type="line" />
    </contour>
  </outline>
</glyph>
<glyph name="greaterequal.uni2265" format="2">
  <advance width="1024" />
  <unicode hex="2265" />
  <outline>
    <contour>
      <point x="128.0" y="0.0" type="line" />
      <point x="768.0" y="0.0" type="line" />
      <point x="768.0" y="128.0" type="line" />
      <point x="128.0" y="128.0" type="line" />
    </contour>
    <contour>
      <point x="128.0" y="347.0" type="line" />
      <point x="219.0" y="256.0" type="line" />
      <point x="795.0" y="832.0" type="line" />
      <point x="219.0" y="1408.0" type="line" />
      <point x="128.0" y="1317.0" type="line" />
      <point x="613.0" y="832.0" type="line" />
    </contour>
  </outline>
</glyph>
<glyph name="8838" format="2">
  <advance width="1024" />
  <unicode hex="2286" />
  <outline>
    <contour>
      <point x="0.0" y="421.0" type="line" />
      <point x="421.0" y="0.0" type="line" />
      <point x="896.0" y="0.0" type="line" />
      <point x="896.0" y="128.0" type="line" />
      <point x="475.0" y="128.0" type="line" />
      <point x="128.0" y="475.0" type="line" />
      <point x="128.0" y="933.0" type="line" />
      <point x="475.0" y="1280.0" type="line" />
      <point x="896.0" y="1280.0" type="line" />
      <point x="896.0" y="1408.0" type="line" />
      <point x="421.0" y="1408.0" type="line" />
      <point x="0.0" y="987.0" type="line" />
    </contour>
    <contour>
      <point x="384.0" y="-128.0" type="line" />
      <point x="896.0" y="-128.0" type="line" />
      <point x="896.0" y="-256.0" type="line" />
      <point x="384.0" y="-256.0" type="line" />
    </contour>
  </outline>
</glyph>
<glyph name="uni22C2.uni22C2" format="2">
  <advance width="1024" />
  <unicode hex="22C2" />
  <outline>
    <contour>
      <point x="0.0" y="-512.0" type="line" />
      <point x="0.0" y="1115.0" type="line" />
      <point x="293.0" y="1408.0" type="line" />
      <point x="603.0" y="1408.0" type="line" />
      <point x="896.0" y="1115.0" type="line" />
      <point x="896.0" y="-512.0" type="line" />
      <point x="768.0" y="-512.0" type="line" />
      <point x="768.0" y="1061.0" type="line" />
      <point x="549.0" y="1280.0" type="line" />
      <point x="347.0" y="1280.0" type="line" />
      <point x="128.0" y="1061.0" type="line" />
      <point x="128.0" y="-512.0" type="line" />
    </contour>
  </outline>
</glyph>
<glyph name="uni22C3.uni22C3" format="2">
  <advance width="1024" />
  <unicode hex="22C3" />
  <outline>
    <contour>
      <point x="0.0" y="-219.0" type="line" />
      <point x="293.0" y="-512.0" type="line" />
      <point x="603.0" y="-512.0" type="line" />
      <point x="896.0" y="-219.0" type="line" />
      <point x="896.0" y="1408.0" type="line" />
      <point x="768.0" y="1408.0" type="line" />
      <point x="768.0" y="-165.0" type="line" />
      <point x="549.0" y="-384.0" type="line" />
      <point x="347.0" y="-384.0" type="line" />
      <point x="128.0" y="-165.0" type="line" />
      <point x="128.0" y="1408.0" type="line" />
      <point x="0.0" y="1408.0" type="line" />
    </contour>
  </outline>
</glyph>
<glyph name="uni27E8.uni27E8" format="2">
  <advance width="1024" />
  <unicode hex="27E8" />
  <outline>
    <contour>
      <point x="-27.0" y="576.0" type="line" />
      <point x="805.0" y="1408.0" type="line" />
      <point x="896.0" y="1317.0" type="line" />
      <point x="155.0" y="576.0" type="line" />
      <point x="896.0" y="-165.0" type="line" />
      <point x="805.0" y="-256.0" type="line" />
    </contour>
  </outline>
</glyph>
<glyph name="uni27E9.uni27E9" format="2">
  <advance width="1024" />
  <unicode hex="27E9" />
  <outline>
    <contour>
      <point x="0.0" y="-165.0" type="line" />
      <point x="91.0" y="-256.0" type="line" />
      <point x="923.0" y="576.0" type="line" />
      <point x="91.0" y="1408.0" type="line" />
      <point x="0.0" y="1317.0" type="line" />
      <point x="741.0" y="576.0" type="line" />
    </contour>
  </outline>
</glyph>
